<svg version="1.1" xmlns="http://www.w3.org/2000/svg" xmlns:xlink="http://www.w3.org/1999/xlink" width="892" height="476"><defs/><g><g transform="translate(-38,-150) scale(1,1)"><path fill="#ffffd8" stroke="none" d="M 48 328 L 191.9580078125 328 L 201.9580078125 338 L 201.9580078125 403 L 48 403 L 48 328"/></g><g transform="translate(-38,-150) scale(1,1)"><path fill="none" stroke="#000000" d="M 48 328 L 191.9580078125 328 L 201.9580078125 338 L 201.9580078125 403 L 48 403 L 48 328 L 48 328" stroke-miterlimit="10"/></g><g transform="translate(-38,-150) scale(1,1)"><path fill="none" stroke="#000000" d="M 191.9580078125 328 L 191.9580078125 338 L 201.9580078125 338 L 191.9580078125 328" stroke-miterlimit="10"/></g><g transform="translate(-38,-150) scale(1,1)"><g><path fill="none" stroke="none"/><text fill="#000000" stroke="none" font-family="Arial" font-size="13px" font-style="normal" font-weight="normal" text-decoration="none" x="53" y="346">ConcreteComponent is</text><text fill="#000000" stroke="none" font-family="Arial" font-size="13px" font-style="normal" font-weight="normal" text-decoration="none" x="53" y="359">the object we're going to</text><text fill="#000000" stroke="none" font-family="Arial" font-size="13px" font-style="normal" font-weight="normal" text-decoration="none" x="53" y="372">dynamically add new</text><text fill="#000000" stroke="none" font-family="Arial" font-size="13px" font-style="normal" font-weight="normal" text-decoration="none" x="53" y="385">behavior to. It extends</text><text fill="#000000" stroke="none" font-family="Arial" font-size="13px" font-style="normal" font-weight="normal" text-decoration="none" x="53" y="398">Component.</text></g></g><g transform="translate(-38,-150) scale(1,1)"><rect fill="#C0C0C0" stroke="none" x="375" y="167" width="143" height="87" opacity="0.2"/></g><g transform="translate(-38,-150) scale(1,1)"><rect fill="#ffffff" stroke="none" x="368" y="160" width="143" height="87"/></g><g transform="translate(-38,-150) scale(1,1)"><path fill="none" stroke="#000000" d="M 368 160 L 511 160 L 511 247 L 368 247 L 368 160 Z Z" stroke-miterlimit="10"/></g><g transform="translate(-38,-150) scale(1,1)"><path fill="none" stroke="#000000" d="M 368 185 L 511 185" stroke-miterlimit="10"/></g><g transform="translate(-38,-150) scale(1,1)"><path fill="none" stroke="#000000" d="M 368 195 L 511 195" stroke-miterlimit="10"/></g><g transform="translate(-38,-150) scale(1,1)"><g><path fill="none" stroke="none"/><text fill="#000000" stroke="none" font-family="Arial" font-size="13px" font-style="normal" font-weight="bold" text-decoration="none" x="405.8955078125" y="179.5">Component</text></g></g><g transform="translate(-38,-150) scale(1,1)"><g><path fill="none" stroke="none"/><text fill="#000000" stroke="none" font-family="Arial" font-size="13px" font-style="normal" font-weight="normal" text-decoration="none" x="373" y="212.5">+methodA()</text></g></g><g transform="translate(-38,-150) scale(1,1)"><g><path fill="none" stroke="none"/><text fill="#000000" stroke="none" font-family="Arial" font-size="13px" font-style="normal" font-weight="normal" text-decoration="none" x="373" y="227.5">+methodB()</text></g></g><g transform="translate(-38,-150) scale(1,1)"><g><path fill="none" stroke="none"/><text fill="#000000" stroke="none" font-family="Arial" font-size="13px" font-style="normal" font-weight="normal" text-decoration="none" x="373" y="242.5">+other methods()</text></g></g><g transform="translate(-38,-150) scale(1,1)"><rect fill="#C0C0C0" stroke="none" x="247" y="327" width="144" height="95" opacity="0.2"/></g><g transform="translate(-38,-150) scale(1,1)"><rect fill="#ffffff" stroke="none" x="240" y="320" width="144" height="95"/></g><g transform="translate(-38,-150) scale(1,1)"><path fill="none" stroke="#000000" d="M 240 320 L 384 320 L 384 415 L 240 415 L 240 320 Z Z" stroke-miterlimit="10"/></g><g transform="translate(-38,-150) scale(1,1)"><path fill="none" stroke="#000000" d="M 240 345 L 384 345" stroke-miterlimit="10"/></g><g transform="translate(-38,-150) scale(1,1)"><path fill="none" stroke="#000000" d="M 240 355 L 384 355" stroke-miterlimit="10"/></g><g transform="translate(-38,-150) scale(1,1)"><g><path fill="none" stroke="none"/><text fill="#000000" stroke="none" font-family="Arial" font-size="13px" font-style="normal" font-weight="bold" text-decoration="none" x="252.02099609375" y="339.5">ConcreteComponent</text></g></g><g transform="translate(-38,-150) scale(1,1)"><g><path fill="none" stroke="none"/><text fill="#000000" stroke="none" font-family="Arial" font-size="13px" font-style="normal" font-weight="normal" text-decoration="none" x="245" y="372.5">+methodA()</text></g></g><g transform="translate(-38,-150) scale(1,1)"><g><path fill="none" stroke="none"/><text fill="#000000" stroke="none" font-family="Arial" font-size="13px" font-style="normal" font-weight="normal" text-decoration="none" x="245" y="387.5">+methodB()</text></g></g><g transform="translate(-38,-150) scale(1,1)"><g><path fill="none" stroke="none"/><text fill="#000000" stroke="none" font-family="Arial" font-size="13px" font-style="normal" font-weight="normal" text-decoration="none" x="245" y="402.5">+other methods()</text></g></g><g transform="translate(-38,-150) scale(1,1)"><path fill="none" stroke="#000000" d="M 349 319 L 404 248" stroke-miterlimit="10"/></g><g transform="translate(-38,-150) scale(1,1)"><path fill="#FFFFFF" stroke="none" d="M 398.20846867449404 269.2239997386375 L 404 248 L 384.89713478718835 258.9124030653725"/></g><g transform="translate(-38,-150) scale(1,1)"><path fill="none" stroke="#000000" d="M 398.20846867449404 269.2239997386375 L 404 248 L 384.89713478718835 258.9124030653725 L 398.20846867449404 269.2239997386375" stroke-miterlimit="10"/></g><g transform="translate(-38,-150) scale(1,1)"><rect fill="#C0C0C0" stroke="none" x="495" y="327" width="144" height="96" opacity="0.2"/></g><g transform="translate(-38,-150) scale(1,1)"><rect fill="#ffffff" stroke="none" x="488" y="320" width="144" height="96"/></g><g transform="translate(-38,-150) scale(1,1)"><path fill="none" stroke="#000000" d="M 488 320 L 632 320 L 632 416 L 488 416 L 488 320 Z Z" stroke-miterlimit="10"/></g><g transform="translate(-38,-150) scale(1,1)"><path fill="none" stroke="#000000" d="M 488 345 L 632 345" stroke-miterlimit="10"/></g><g transform="translate(-38,-150) scale(1,1)"><path fill="none" stroke="#000000" d="M 488 355 L 632 355" stroke-miterlimit="10"/></g><g transform="translate(-38,-150) scale(1,1)"><g><path fill="none" stroke="none"/><text fill="#000000" stroke="none" font-family="Arial" font-size="13px" font-style="normal" font-weight="bold" text-decoration="none" x="531.4609375" y="339.5">Decorator</text></g></g><g transform="translate(-38,-150) scale(1,1)"><g><path fill="none" stroke="none"/><text fill="#000000" stroke="none" font-family="Arial" font-size="13px" font-style="normal" font-weight="normal" text-decoration="none" x="493" y="372.5">+methodA()</text></g></g><g transform="translate(-38,-150) scale(1,1)"><g><path fill="none" stroke="none"/><text fill="#000000" stroke="none" font-family="Arial" font-size="13px" font-style="normal" font-weight="normal" text-decoration="none" x="493" y="387.5">+methodB()</text></g></g><g transform="translate(-38,-150) scale(1,1)"><g><path fill="none" stroke="none"/><text fill="#000000" stroke="none" font-family="Arial" font-size="13px" font-style="normal" font-weight="normal" text-decoration="none" x="493" y="402.5">+other methods()</text></g></g><g transform="translate(-38,-150) scale(1,1)"><path fill="none" stroke="#000000" d="M 524 319 L 472 248" stroke-miterlimit="10"/></g><g transform="translate(-38,-150) scale(1,1)"><path fill="#FFFFFF" stroke="none" d="M 490.8018509238328 259.4232395509316 L 472 248 L 477.2174661375186 269.3723664366828"/></g><g transform="translate(-38,-150) scale(1,1)"><path fill="none" stroke="#000000" d="M 490.8018509238328 259.4232395509316 L 472 248 L 477.2174661375186 269.3723664366828 L 490.8018509238328 259.4232395509316" stroke-miterlimit="10"/></g><g transform="translate(-38,-150) scale(1,1)"><rect fill="#C0C0C0" stroke="none" x="359" y="503" width="157.509765625" height="120" opacity="0.2"/></g><g transform="translate(-38,-150) scale(1,1)"><rect fill="#ffffff" stroke="none" x="352" y="496" width="157.509765625" height="120"/></g><g transform="translate(-38,-150) scale(1,1)"><path fill="none" stroke="#000000" d="M 352 496 L 509.509765625 496 L 509.509765625 616 L 352 616 L 352 496 Z Z" stroke-miterlimit="10"/></g><g transform="translate(-38,-150) scale(1,1)"><path fill="none" stroke="#000000" d="M 352 521 L 509.509765625 521" stroke-miterlimit="10"/></g><g transform="translate(-38,-150) scale(1,1)"><path fill="none" stroke="#000000" d="M 352 544 L 509.509765625 544" stroke-miterlimit="10"/></g><g transform="translate(-38,-150) scale(1,1)"><g><path fill="none" stroke="none"/><text fill="#000000" stroke="none" font-family="Arial" font-size="13px" font-style="normal" font-weight="bold" text-decoration="none" x="371.505859375" y="515.5">ConcreteDecoratorA</text></g></g><g transform="translate(-38,-150) scale(1,1)"><g><path fill="none" stroke="none"/><text fill="#000000" stroke="none" font-family="Arial" font-size="13px" font-style="normal" font-weight="normal" text-decoration="none" x="357" y="538.5">+Component wrappedObj</text></g></g><g transform="translate(-38,-150) scale(1,1)"><g><path fill="none" stroke="none"/><text fill="#000000" stroke="none" font-family="Arial" font-size="13px" font-style="normal" font-weight="normal" text-decoration="none" x="357" y="561.5">+methodA()</text></g></g><g transform="translate(-38,-150) scale(1,1)"><g><path fill="none" stroke="none"/><text fill="#000000" stroke="none" font-family="Arial" font-size="13px" font-style="normal" font-weight="normal" text-decoration="none" x="357" y="576.5">+methodB()</text></g></g><g transform="translate(-38,-150) scale(1,1)"><g><path fill="none" stroke="none"/><text fill="#000000" stroke="none" font-family="Arial" font-size="13px" font-style="normal" font-weight="normal" text-decoration="none" x="357" y="591.5">+newBehavior()</text></g></g><g transform="translate(-38,-150) scale(1,1)"><g><path fill="none" stroke="none"/><text fill="#000000" stroke="none" font-family="Arial" font-size="13px" font-style="normal" font-weight="normal" text-decoration="none" x="357" y="606.5">+other methods()</text></g></g><g transform="translate(-38,-150) scale(1,1)"><path fill="none" stroke="#000000" d="M 472 495 L 526 417" stroke-miterlimit="10"/></g><g transform="translate(-38,-150) scale(1,1)"><path fill="#FFFFFF" stroke="none" d="M 521.3526733780293 438.5035428538816 L 526 417 L 507.5085428597005 428.9191448027309"/></g><g transform="translate(-38,-150) scale(1,1)"><path fill="none" stroke="#000000" d="M 521.3526733780293 438.5035428538816 L 526 417 L 507.5085428597005 428.9191448027309 L 521.3526733780293 438.5035428538816" stroke-miterlimit="10"/></g><g transform="translate(-38,-150) scale(1,1)"><rect fill="#C0C0C0" stroke="none" x="559" y="503" width="160" height="115" opacity="0.2"/></g><g transform="translate(-38,-150) scale(1,1)"><rect fill="#ffffff" stroke="none" x="552" y="496" width="160" height="115"/></g><g transform="translate(-38,-150) scale(1,1)"><path fill="none" stroke="#000000" d="M 552 496 L 712 496 L 712 611 L 552 611 L 552 496 Z Z" stroke-miterlimit="10"/></g><g transform="translate(-38,-150) scale(1,1)"><path fill="none" stroke="#000000" d="M 552 521 L 712 521" stroke-miterlimit="10"/></g><g transform="translate(-38,-150) scale(1,1)"><path fill="none" stroke="#000000" d="M 552 559 L 712 559" stroke-miterlimit="10"/></g><g transform="translate(-38,-150) scale(1,1)"><g><path fill="none" stroke="none"/><text fill="#000000" stroke="none" font-family="Arial" font-size="13px" font-style="normal" font-weight="bold" text-decoration="none" x="572.7509765625" y="515.5">ConcreteDecoratorB</text></g></g><g transform="translate(-38,-150) scale(1,1)"><g><path fill="none" stroke="none"/><text fill="#000000" stroke="none" font-family="Arial" font-size="13px" font-style="normal" font-weight="normal" text-decoration="none" x="557" y="538.5">+Component wrappedObj</text></g></g><g transform="translate(-38,-150) scale(1,1)"><g><path fill="none" stroke="none"/><text fill="#000000" stroke="none" font-family="Arial" font-size="13px" font-style="normal" font-weight="normal" text-decoration="none" x="557" y="553.5">+object newState</text></g></g><g transform="translate(-38,-150) scale(1,1)"><g><path fill="none" stroke="none"/><text fill="#000000" stroke="none" font-family="Arial" font-size="13px" font-style="normal" font-weight="normal" text-decoration="none" x="557" y="576.5">+methodA()</text></g></g><g transform="translate(-38,-150) scale(1,1)"><g><path fill="none" stroke="none"/><text fill="#000000" stroke="none" font-family="Arial" font-size="13px" font-style="normal" font-weight="normal" text-decoration="none" x="557" y="591.5">+methodB()</text></g></g><g transform="translate(-38,-150) scale(1,1)"><g><path fill="none" stroke="none"/><text fill="#000000" stroke="none" font-family="Arial" font-size="13px" font-style="normal" font-weight="normal" text-decoration="none" x="557" y="606.5">+other methods()</text></g></g><g transform="translate(-38,-150) scale(1,1)"><path fill="none" stroke="#000000" d="M 609 495 L 579 417" stroke-miterlimit="10"/></g><g transform="translate(-38,-150) scale(1,1)"><path fill="#FFFFFF" stroke="none" d="M 594.1542451310332 432.9483182344897 L 579 417 L 578.4385055237881 438.99283346804555"/></g><g transform="translate(-38,-150) scale(1,1)"><path fill="none" stroke="#000000" d="M 594.1542451310332 432.9483182344897 L 579 417 L 578.4385055237881 438.99283346804555 L 594.1542451310332 432.9483182344897" stroke-miterlimit="10"/></g><g transform="translate(-38,-150) scale(1,1)"><path fill="none" stroke="#000000" d="M 572 319 Q 592 240 512 221" stroke-miterlimit="10"/></g><g transform="translate(-38,-150) scale(1,1)"><path fill="#000000" stroke="none" d="M 522.8603413224223 219.2527202970086 L 512 221 L 520.9149343217001 227.44390766847047 L 533.4046041158304 226.0835934775097"/></g><g transform="translate(-38,-150) scale(1,1)"><path fill="none" stroke="#000000" d="M 522.8603413224223 219.2527202970086 L 512 221 L 520.9149343217001 227.44390766847047 L 533.4046041158304 226.0835934775097 L 522.8603413224223 219.2527202970086" stroke-miterlimit="10"/></g><g transform="translate(-38,-150) scale(1,1)"><g><path fill="none" stroke="none"/><text fill="#000000" stroke="none" font-family="Arial" font-size="13px" font-style="normal" font-weight="normal" text-decoration="none" x="559.5" y="244.5">+component</text></g></g><g transform="translate(-38,-150) scale(1,1)"><path fill="none" stroke="#000000" d="M 239 367 L 204 366" stroke-miterlimit="10" stroke-dasharray="3"/></g><g transform="translate(-38,-150) scale(1,1)"><path fill="#ffffd8" stroke="none" d="M 736 176 L 869 176 L 879 186 L 879 239 L 736 239 L 736 176"/></g><g transform="translate(-38,-150) scale(1,1)"><path fill="none" stroke="#000000" d="M 736 176 L 869 176 L 879 186 L 879 239 L 736 239 L 736 176 L 736 176" stroke-miterlimit="10"/></g><g transform="translate(-38,-150) scale(1,1)"><path fill="none" stroke="#000000" d="M 869 176 L 869 186 L 879 186 L 869 176" stroke-miterlimit="10"/></g><g transform="translate(-38,-150) scale(1,1)"><g><path fill="none" stroke="none"/><text fill="#000000" stroke="none" font-family="Arial" font-size="13px" font-style="normal" font-weight="normal" text-decoration="none" x="741" y="194">Each component can</text><text fill="#000000" stroke="none" font-family="Arial" font-size="13px" font-style="normal" font-weight="normal" text-decoration="none" x="741" y="207">be used on its own, or</text><text fill="#000000" stroke="none" font-family="Arial" font-size="13px" font-style="normal" font-weight="normal" text-decoration="none" x="741" y="220">wrapped by a</text><text fill="#000000" stroke="none" font-family="Arial" font-size="13px" font-style="normal" font-weight="normal" text-decoration="none" x="741" y="233">decorator.</text></g></g><g transform="translate(-38,-150) scale(1,1)"><path fill="none" stroke="#000000" d="M 552 230 L 735 214" stroke-miterlimit="10" stroke-dasharray="3"/></g><g transform="translate(-38,-150) scale(1,1)"><path fill="#ffffd8" stroke="none" d="M 736 264 L 909 264 L 919 274 L 919 339 L 736 339 L 736 264"/></g><g transform="translate(-38,-150) scale(1,1)"><path fill="none" stroke="#000000" d="M 736 264 L 909 264 L 919 274 L 919 339 L 736 339 L 736 264 L 736 264" stroke-miterlimit="10"/></g><g transform="translate(-38,-150) scale(1,1)"><path fill="none" stroke="#000000" d="M 909 264 L 909 274 L 919 274 L 909 264" stroke-miterlimit="10"/></g><g transform="translate(-38,-150) scale(1,1)"><g><path fill="none" stroke="none"/><text fill="#000000" stroke="none" font-family="Arial" font-size="13px" font-style="normal" font-weight="normal" text-decoration="none" x="741" y="282">Each decorator has a</text><text fill="#000000" stroke="none" font-family="Arial" font-size="13px" font-style="normal" font-weight="normal" text-decoration="none" x="741" y="295">component, which means the</text><text fill="#000000" stroke="none" font-family="Arial" font-size="13px" font-style="normal" font-weight="normal" text-decoration="none" x="741" y="308">decorator has an instance</text><text fill="#000000" stroke="none" font-family="Arial" font-size="13px" font-style="normal" font-weight="normal" text-decoration="none" x="741" y="321">variable that holds a</text><text fill="#000000" stroke="none" font-family="Arial" font-size="13px" font-style="normal" font-weight="normal" text-decoration="none" x="741" y="334">reference to a component.</text></g></g><g transform="translate(-38,-150) scale(1,1)"><path fill="none" stroke="#000000" d="M 633 350 L 735 325" stroke-miterlimit="10" stroke-dasharray="3"/></g><g transform="translate(-38,-150) scale(1,1)"><path fill="#ffffd8" stroke="none" d="M 736 384 L 909 384 L 919 394 L 919 446 L 736 446 L 736 384"/></g><g transform="translate(-38,-150) scale(1,1)"><path fill="none" stroke="#000000" d="M 736 384 L 909 384 L 919 394 L 919 446 L 736 446 L 736 384 L 736 384" stroke-miterlimit="10"/></g><g transform="translate(-38,-150) scale(1,1)"><path fill="none" stroke="#000000" d="M 909 384 L 909 394 L 919 394 L 909 384" stroke-miterlimit="10"/></g><g transform="translate(-38,-150) scale(1,1)"><g><path fill="none" stroke="none"/><text fill="#000000" stroke="none" font-family="Arial" font-size="13px" font-style="normal" font-weight="normal" text-decoration="none" x="741" y="402">Decorators implement the</text><text fill="#000000" stroke="none" font-family="Arial" font-size="13px" font-style="normal" font-weight="normal" text-decoration="none" x="741" y="415">same interface or abstract</text><text fill="#000000" stroke="none" font-family="Arial" font-size="13px" font-style="normal" font-weight="normal" text-decoration="none" x="741" y="428">class as the component they</text><text fill="#000000" stroke="none" font-family="Arial" font-size="13px" font-style="normal" font-weight="normal" text-decoration="none" x="741" y="441">are going to decorate.</text></g></g><g transform="translate(-38,-150) scale(1,1)"><path fill="none" stroke="#000000" d="M 633 381 L 735 399" stroke-miterlimit="10" stroke-dasharray="3"/></g><g transform="translate(-38,-150) scale(1,1)"><path fill="#ffffd8" stroke="none" d="M 736 528 L 901 528 L 911 538 L 911 564 L 736 564 L 736 528"/></g><g transform="translate(-38,-150) scale(1,1)"><path fill="none" stroke="#000000" d="M 736 528 L 901 528 L 911 538 L 911 564 L 736 564 L 736 528 L 736 528" stroke-miterlimit="10"/></g><g transform="translate(-38,-150) scale(1,1)"><path fill="none" stroke="#000000" d="M 901 528 L 901 538 L 911 538 L 901 528" stroke-miterlimit="10"/></g><g transform="translate(-38,-150) scale(1,1)"><g><path fill="none" stroke="none"/><text fill="#000000" stroke="none" font-family="Arial" font-size="13px" font-style="normal" font-weight="normal" text-decoration="none" x="741" y="546">Decorator can extend the</text><text fill="#000000" stroke="none" font-family="Arial" font-size="13px" font-style="normal" font-weight="normal" text-decoration="none" x="741" y="559">state of the component.</text></g></g><g transform="translate(-38,-150) scale(1,1)"><path fill="none" stroke="#000000" d="M 713 550 L 735 549" stroke-miterlimit="10" stroke-dasharray="3"/></g><g transform="translate(-38,-150) scale(1,1)"><path fill="#ffffd8" stroke="none" d="M 112 512 L 285 512 L 295 522 L 295 607 L 112 607 L 112 512"/></g><g transform="translate(-38,-150) scale(1,1)"><path fill="none" stroke="#000000" d="M 112 512 L 285 512 L 295 522 L 295 607 L 112 607 L 112 512 L 112 512" stroke-miterlimit="10"/></g><g transform="translate(-38,-150) scale(1,1)"><path fill="none" stroke="#000000" d="M 285 512 L 285 522 L 295 522 L 285 512" stroke-miterlimit="10"/></g><g transform="translate(-38,-150) scale(1,1)"><g><path fill="none" stroke="none"/><text fill="#000000" stroke="none" font-family="Arial" font-size="13px" font-style="normal" font-weight="normal" text-decoration="none" x="117" y="530">Decorators can add new</text><text fill="#000000" stroke="none" font-family="Arial" font-size="13px" font-style="normal" font-weight="normal" text-decoration="none" x="117" y="543">methods; however, new</text></g></g><g transform="translate(-38,-150) scale(1,1)"><g><path fill="none" stroke="none"/><text fill="#000000" stroke="none" font-family="Arial" font-size="13px" font-style="normal" font-weight="normal" text-decoration="none" x="117" y="558">behavior is typically added by</text><text fill="#000000" stroke="none" font-family="Arial" font-size="13px" font-style="normal" font-weight="normal" text-decoration="none" x="117" y="571">doing computation</text></g></g><g transform="translate(-38,-150) scale(1,1)"><g><path fill="none" stroke="none"/><text fill="#000000" stroke="none" font-family="Arial" font-size="13px" font-style="normal" font-weight="normal" text-decoration="none" x="117" y="586">before or after an existing</text><text fill="#000000" stroke="none" font-family="Arial" font-size="13px" font-style="normal" font-weight="normal" text-decoration="none" x="117" y="599">method in the component</text></g></g><g transform="translate(-38,-150) scale(1,1)"><path fill="none" stroke="#000000" d="M 351 557 L 297 558" stroke-miterlimit="10" stroke-dasharray="3"/></g></g></svg>